<svg xmlns="http://www.w3.org/2000/svg" viewBox="0 0 512 512">
  <defs>
    <linearGradient id="grad1" x1="0%" y1="0%" x2="100%" y2="100%">
      <stop offset="0%" style="stop-color:#3b82f6;stop-opacity:1" />
      <stop offset="50%" style="stop-color:#a855f7;stop-opacity:1" />
      <stop offset="100%" style="stop-color:#ec4899;stop-opacity:1" />
    </linearGradient>
    <linearGradient id="grad2" x1="0%" y1="0%" x2="100%" y2="100%">
      <stop offset="0%" style="stop-color:#60a5fa;stop-opacity:1" />
      <stop offset="100%" style="stop-color:#c084fc;stop-opacity:1" />
    </linearGradient>
  </defs>

  <!-- Background circle -->
  <circle cx="256" cy="256" r="240" fill="url(#grad1)"/>

  <!-- Main sparkle star -->
  <path d="M 256 80 L 280 200 L 400 220 L 300 300 L 320 420 L 256 360 L 192 420 L 212 300 L 112 220 L 232 200 Z" fill="white" opacity="0.95"/>

  <!-- Small sparkle top right -->
  <circle cx="380" cy="140" r="20" fill="white" opacity="0.8"/>
  <path d="M 380 120 L 383 135 L 398 138 L 385 147 L 388 162 L 380 154 L 372 162 L 375 147 L 362 138 L 377 135 Z" fill="white"/>

  <!-- Small sparkle bottom left -->
  <circle cx="140" cy="380" r="16" fill="white" opacity="0.7"/>
  <path d="M 140 368 L 142 379 L 153 381 L 143 388 L 145 399 L 140 393 L 135 399 L 137 388 L 127 381 L 138 379 Z" fill="white"/>

  <!-- Tiny sparkle accent -->
  <circle cx="320" cy="100" r="8" fill="white" opacity="0.9"/>

  <!-- Form document icon integrated -->
  <rect x="220" y="240" width="72" height="90" rx="6" fill="url(#grad2)" opacity="0.3"/>
  <line x1="235" y1="260" x2="277" y2="260" stroke="white" stroke-width="3" opacity="0.6"/>
  <line x1="235" y1="280" x2="277" y2="280" stroke="white" stroke-width="3" opacity="0.6"/>
  <line x1="235" y1="300" x2="265" y2="300" stroke="white" stroke-width="3" opacity="0.6"/>
</svg>
